<?xml version="1.0" standalone="no"?>
<!DOCTYPE svg PUBLIC "-//W3C//DTD SVG 20010904//EN"
 "http://www.w3.org/TR/2001/REC-SVG-20010904/DTD/svg10.dtd">
<svg version="1.0" xmlns="http://www.w3.org/2000/svg"
 width="576.000000pt" height="576.000000pt" viewBox="0 0 576.000000 576.000000"
 preserveAspectRatio="xMidYMid meet">
<metadata>
Created by potrace 1.11, written by Peter Selinger 2001-2013
</metadata>
<g transform="translate(0.000000,576.000000) scale(0.100000,-0.100000)"
fill="#000000" stroke="none">
<path d="M1060 4298 c-67 -34 -90 -81 -90 -188 0 -103 24 -163 80 -195 32 -18
58 -20 290 -25 l254 -5 233 -1135 c198 -969 230 -1136 217 -1143 -104 -58
-184 -221 -170 -344 11 -95 44 -162 110 -229 80 -80 148 -108 261 -107 90 0
145 18 219 70 155 109 196 357 84 506 -14 18 -28 38 -32 45 -6 9 134 12 683
12 l690 0 -39 -57 c-104 -152 -86 -339 44 -469 80 -80 148 -108 261 -107 207
1 365 157 365 362 0 127 -55 238 -148 301 -29 19 -51 42 -51 50 0 8 8 53 18
100 24 115 9 175 -56 217 -25 17 -90 18 -947 23 l-920 5 -21 103 c-12 56 -19
105 -17 107 3 3 452 5 997 5 l992 0 33 23 c19 12 42 36 51 52 27 46 342 1442
335 1485 -6 39 -30 74 -70 104 -27 21 -34 21 -1359 26 l-1331 5 -33 159 c-19
91 -42 173 -54 192 -11 18 -39 42 -63 53 -40 20 -59 21 -407 21 -358 0 -366 0
-409 -22z"/>
</g>
</svg>
